<svg width="40" height="40" viewBox="0 0 40 40" fill="none" xmlns="http://www.w3.org/2000/svg">
<circle cx="20" cy="20" r="20" fill="#FFF9C5"/>
<path d="M17 13H15C14.4696 13 13.9609 13.2107 13.5858 13.5858C13.2107 13.9609 13 14.4696 13 15V27C13 27.5304 13.2107 28.0391 13.5858 28.4142C13.9609 28.7893 14.4696 29 15 29H25C25.5304 29 26.0391 28.7893 26.4142 28.4142C26.7893 28.0391 27 27.5304 27 27V15C27 14.4696 26.7893 13.9609 26.4142 13.5858C26.0391 13.2107 25.5304 13 25 13H23" stroke="#F67F17" stroke-width="2" stroke-linecap="round" stroke-linejoin="round"/>
<path d="M22 19H19.5C19.1022 19 18.7206 19.158 18.4393 19.4393C18.158 19.7206 18 20.1022 18 20.5C18 20.8978 18.158 21.2794 18.4393 21.5607C18.7206 21.842 19.1022 22 19.5 22H20.5C20.8978 22 21.2794 22.158 21.5607 22.4393C21.842 22.7206 22 23.1022 22 23.5C22 23.8978 21.842 24.2794 21.5607 24.5607C21.2794 24.842 20.8978 25 20.5 25H18M20 25V26M20 18V19M17 13C17 12.4696 17.2107 11.9609 17.5858 11.5858C17.9609 11.2107 18.4696 11 19 11H21C21.5304 11 22.0391 11.2107 22.4142 11.5858C22.7893 11.9609 23 12.4696 23 13C23 13.5304 22.7893 14.0391 22.4142 14.4142C22.0391 14.7893 21.5304 15 21 15H19C18.4696 15 17.9609 14.7893 17.5858 14.4142C17.2107 14.0391 17 13.5304 17 13Z" stroke="#F67F17" stroke-width="2" stroke-linecap="round" stroke-linejoin="round"/>
</svg>
