<svg width="32" height="32" viewBox="0 0 32 32" fill="none" xmlns="http://www.w3.org/2000/svg">
<path fill-rule="evenodd" clip-rule="evenodd" d="M27.2458 11.8034C26.3723 12.5495 25.2388 13 24 13C21.2386 13 19 10.7614 19 8C19 6.76124 19.4505 5.62769 20.1966 4.75425C18.8903 4.26659 17.4763 4 16 4C9.37258 4 4 9.37258 4 16C4 22.6274 9.37258 28 16 28C22.6274 28 28 22.6274 28 16C28 14.5237 27.7334 13.1097 27.2458 11.8034Z" fill="#F9A825"/>
<path d="M15.1875 23.5V21.7083C14.4514 21.5417 13.816 21.2222 13.2813 20.75C12.7465 20.2778 12.3542 19.6111 12.1042 18.75L13.6458 18.125C13.8542 18.7917 14.1632 19.2986 14.5729 19.6458C14.9826 19.9931 15.5208 20.1667 16.1875 20.1667C16.7569 20.1667 17.2396 20.0382 17.6354 19.7813C18.0313 19.5243 18.2292 19.125 18.2292 18.5833C18.2292 18.0972 18.0764 17.7118 17.7708 17.4271C17.4653 17.1424 16.7569 16.8194 15.6458 16.4583C14.4514 16.0833 13.6319 15.6354 13.1875 15.1146C12.7431 14.5938 12.5208 13.9583 12.5208 13.2083C12.5208 12.3056 12.8125 11.6042 13.3958 11.1042C13.9792 10.6042 14.5764 10.3194 15.1875 10.25V8.5H16.8542V10.25C17.5486 10.3611 18.1215 10.6146 18.5729 11.0104C19.0243 11.4063 19.3542 11.8889 19.5625 12.4583L18.0208 13.125C17.8542 12.6806 17.6181 12.3472 17.3125 12.125C17.0069 11.9028 16.5903 11.7917 16.0625 11.7917C15.4514 11.7917 14.9861 11.9271 14.6667 12.1979C14.3472 12.4688 14.1875 12.8056 14.1875 13.2083C14.1875 13.6667 14.3958 14.0278 14.8125 14.2917C15.2292 14.5556 15.9514 14.8333 16.9792 15.125C17.9375 15.4028 18.6632 15.8438 19.1563 16.4479C19.6493 17.0521 19.8958 17.75 19.8958 18.5417C19.8958 19.5278 19.6042 20.2778 19.0208 20.7917C18.4375 21.3056 17.7153 21.625 16.8542 21.75V23.5H15.1875Z" fill="white"/>
<path d="M23.5 3V9.0875L20.7 6.2875L20 7L24 11L28 7L27.3 6.2875L24.5 9.0875V3H23.5Z" fill="#F9A825"/>
</svg>
