<svg width="40" height="40" viewBox="0 0 40 40" fill="none" xmlns="http://www.w3.org/2000/svg">
<circle cx="20" cy="20" r="20" fill="#FFF4E0"/>
<path d="M28.9595 19.583C28.9865 19.842 29 20.1145 29 20.4005C29 22.346 28.322 23.654 27.665 24.473C27.3998 24.8056 27.0962 25.1057 26.7605 25.367C26.6464 25.4536 26.5283 25.5347 26.4065 25.61L26.393 25.6175C26.2741 25.6819 26.1748 25.7772 26.1056 25.8934C26.0364 26.0096 25.9999 26.1423 26 26.2775V28.25C26 28.4489 25.921 28.6397 25.7803 28.7803C25.6397 28.921 25.4489 29 25.25 29H24.5C24.5 28.6022 24.342 28.2206 24.0607 27.9393C23.7794 27.658 23.3978 27.5 23 27.5H20C19.6022 27.5 19.2206 27.658 18.9393 27.9393C18.658 28.2206 18.5 28.6022 18.5 29H17.75C17.5511 29 17.3603 28.921 17.2197 28.7803C17.079 28.6397 17 28.4489 17 28.25V27.3455C17.0002 27.1594 16.9312 26.98 16.8065 26.8419C16.6817 26.7039 16.5101 26.6171 16.325 26.5985L16.181 26.5655C15.3674 26.3496 14.626 25.9209 14.033 25.3235C13.37 24.6485 12.9635 23.7605 12.746 23.144C12.53 22.5305 12.038 21.9755 11.336 21.7775C11.2398 21.7497 11.1552 21.6917 11.0946 21.6119C11.0341 21.5322 11.0009 21.4351 11 21.335V20.144C10.9999 20.0495 11.0306 19.9575 11.0874 19.882C11.1443 19.8065 11.2242 19.7516 11.315 19.7255C12.0425 19.517 12.5285 18.929 12.734 18.308C12.902 17.798 13.199 17.144 13.682 16.6535C14.235 16.1007 14.8744 15.6417 15.575 15.2945C15.635 15.2645 15.68 15.243 15.71 15.23L15.74 15.215L15.746 15.2135C15.881 15.1556 15.996 15.0594 16.0768 14.9367C16.1576 14.8141 16.2006 14.6704 16.2005 14.5235V12.0125C16.5336 12.2977 16.8843 12.5617 17.2505 12.803C17.726 13.115 18.281 13.4105 18.8615 13.568C19.0325 13.076 19.2665 12.608 19.5575 12.176H19.5485C19.13 12.1325 18.6185 11.906 18.071 11.5475C17.5692 11.2103 17.0974 10.8304 16.661 10.412C16.4983 10.2583 16.2944 10.1553 16.0742 10.1153C15.8539 10.0754 15.6268 10.1003 15.4205 10.187C15.2087 10.2709 15.0269 10.4164 14.8986 10.6046C14.7703 10.7928 14.7013 11.0152 14.7005 11.243V14.0585C13.9347 14.4692 13.2324 14.9885 12.6155 15.6005C11.9 16.3235 11.5115 17.2265 11.3105 17.837C11.2265 18.0875 11.0585 18.239 10.9025 18.2825C10.4984 18.3982 10.143 18.6422 9.89 18.9778C9.63696 19.3134 9.50006 19.7222 9.5 20.1425V21.335C9.5 22.2125 10.0835 22.982 10.9265 23.2205C11.0224 23.2539 11.1091 23.3095 11.1795 23.3827C11.2499 23.456 11.302 23.5448 11.3315 23.642C11.5805 24.35 12.0785 25.4765 12.9665 26.3765C13.6735 27.091 14.5427 27.6241 15.5 27.9305V28.25C15.5 28.8467 15.7371 29.419 16.159 29.841C16.581 30.2629 17.1533 30.5 17.75 30.5H18.5C18.8978 30.5 19.2794 30.342 19.5607 30.0607C19.842 29.7794 20 29.3978 20 29H23C23 29.3978 23.158 29.7794 23.4393 30.0607C23.7206 30.342 24.1022 30.5 24.5 30.5H25.25C25.8467 30.5 26.419 30.2629 26.841 29.841C27.2629 29.419 27.5 28.8467 27.5 28.25V26.6855C27.555 26.6465 27.614 26.6025 27.677 26.5535C28.1067 26.2195 28.4954 25.8358 28.835 25.4105C29.678 24.3605 30.5 22.7285 30.5 20.4005C30.498 19.4275 30.363 18.5515 30.095 17.7725C29.8279 18.4391 29.4433 19.0523 28.9595 19.583ZM28.6865 13.8125C29.0617 14.7173 29.1314 15.7199 28.8851 16.6679C28.6387 17.616 28.0897 18.4578 27.3215 19.0655C26.696 19.559 25.8395 19.5215 25.1045 19.2155L21.5195 17.732C20.7845 17.4275 20.1515 16.8485 20.0585 16.058C19.9339 14.9798 20.2031 13.8929 20.8165 12.9975C21.4299 12.1021 22.3461 11.4584 23.3965 11.185C24.4469 10.9117 25.5606 11.027 26.5327 11.5098C27.5047 11.9926 28.2696 12.8104 28.6865 13.8125ZM26.3915 17.888C26.802 17.5636 27.1207 17.1375 27.3157 16.6519C27.5108 16.1664 27.5755 15.6383 27.5035 15.12C27.4315 14.6017 27.2253 14.1113 26.9053 13.6973C26.5853 13.2833 26.1626 12.9602 25.6791 12.76C25.1957 12.5597 24.6683 12.4894 24.1493 12.5558C23.6303 12.6223 23.1377 12.8233 22.7203 13.1389C22.3029 13.4545 21.9753 13.8737 21.7699 14.3549C21.5646 14.8362 21.4886 15.3628 21.5495 15.8825C21.5525 15.9125 21.5645 15.968 21.6485 16.0565C21.7764 16.1816 21.9278 16.28 22.094 16.346L25.679 17.831C25.8421 17.906 26.02 17.9434 26.1995 17.9405C26.3195 17.9375 26.369 17.906 26.3915 17.888ZM16.625 19.25C16.9234 19.25 17.2095 19.1315 17.4205 18.9205C17.6315 18.7095 17.75 18.4234 17.75 18.125C17.75 17.8266 17.6315 17.5405 17.4205 17.3295C17.2095 17.1185 16.9234 17 16.625 17C16.3266 17 16.0405 17.1185 15.8295 17.3295C15.6185 17.5405 15.5 17.8266 15.5 18.125C15.5 18.4234 15.6185 18.7095 15.8295 18.9205C16.0405 19.1315 16.3266 19.25 16.625 19.25Z" fill="#FB8A00"/>
</svg>
