<svg width="40" height="40" viewBox="0 0 40 40" fill="none" xmlns="http://www.w3.org/2000/svg">
<circle cx="20" cy="20" r="20" fill="#EAEBFF"/>
<path fill-rule="evenodd" clip-rule="evenodd" d="M17.944 11.25H22.056C23.894 11.25 25.35 11.25 26.489 11.403C27.661 11.561 28.61 11.893 29.359 12.641C30.107 13.39 30.439 14.339 30.597 15.511C30.687 16.184 30.724 16.967 30.739 17.874C30.7521 17.95 30.7534 18.0276 30.743 18.104C30.75 18.67 30.75 19.282 30.75 19.944V20.056C30.75 21.894 30.75 23.35 30.597 24.489C30.439 25.661 30.107 26.61 29.359 27.359C28.61 28.107 27.661 28.439 26.489 28.597C25.349 28.75 23.894 28.75 22.056 28.75H17.944C16.106 28.75 14.65 28.75 13.511 28.597C12.339 28.439 11.39 28.107 10.641 27.359C9.89299 26.61 9.56099 25.661 9.40299 24.489C9.24999 23.349 9.24999 21.894 9.24999 20.056V19.944C9.24999 19.282 9.24999 18.67 9.25699 18.104C9.24626 18.0276 9.24728 17.9501 9.25999 17.874C9.27599 16.967 9.31299 16.184 9.40299 15.511C9.56099 14.339 9.89299 13.39 10.641 12.641C11.39 11.893 12.339 11.561 13.511 11.403C14.651 11.25 16.106 11.25 17.944 11.25ZM10.752 18.75C10.75 19.138 10.75 19.554 10.75 20C10.75 21.907 10.752 23.262 10.89 24.29C11.025 25.295 11.279 25.875 11.702 26.298C12.125 26.721 12.705 26.975 13.711 27.11C14.739 27.248 16.093 27.25 18 27.25H22C23.907 27.25 25.262 27.248 26.29 27.11C27.295 26.975 27.875 26.721 28.298 26.298C28.721 25.875 28.975 25.295 29.11 24.289C29.248 23.261 29.25 21.907 29.25 20C29.25 19.554 29.25 19.138 29.248 18.75H10.752ZM29.224 17.25H10.776C10.796 16.663 10.83 16.156 10.89 15.71C11.025 14.705 11.279 14.125 11.702 13.702C12.125 13.279 12.705 13.025 13.711 12.89C14.739 12.752 16.093 12.75 18 12.75H22C23.907 12.75 25.262 12.752 26.29 12.89C27.295 13.025 27.875 13.279 28.298 13.702C28.721 14.125 28.975 14.705 29.11 15.711C29.17 16.156 29.204 16.663 29.224 17.25ZM13.25 24C13.25 23.8011 13.329 23.6103 13.4697 23.4697C13.6103 23.329 13.8011 23.25 14 23.25H18C18.1989 23.25 18.3897 23.329 18.5303 23.4697C18.671 23.6103 18.75 23.8011 18.75 24C18.75 24.1989 18.671 24.3897 18.5303 24.5303C18.3897 24.671 18.1989 24.75 18 24.75H14C13.8011 24.75 13.6103 24.671 13.4697 24.5303C13.329 24.3897 13.25 24.1989 13.25 24ZM19.75 24C19.75 23.8011 19.829 23.6103 19.9697 23.4697C20.1103 23.329 20.3011 23.25 20.5 23.25H22C22.1989 23.25 22.3897 23.329 22.5303 23.4697C22.671 23.6103 22.75 23.8011 22.75 24C22.75 24.1989 22.671 24.3897 22.5303 24.5303C22.3897 24.671 22.1989 24.75 22 24.75H20.5C20.3011 24.75 20.1103 24.671 19.9697 24.5303C19.829 24.3897 19.75 24.1989 19.75 24Z" fill="#3850E7"/>
</svg>
