<svg width="24" height="24" viewBox="0 0 24 24" fill="none" xmlns="http://www.w3.org/2000/svg">
<path d="M12.75 1.5C12.5511 1.5 12.3603 1.57902 12.2197 1.71967C12.079 1.86032 12 2.05109 12 2.25V11.25C12 11.4489 12.079 11.6397 12.2197 11.7803C12.3603 11.921 12.5511 12 12.75 12H21.75C21.9489 12 22.1397 11.921 22.2803 11.7803C22.421 11.6397 22.5 11.4489 22.5 11.25C22.5 9.96961 22.2478 8.70176 21.7578 7.51884C21.2678 6.33591 20.5497 5.26108 19.6443 4.35571C18.7389 3.45034 17.6641 2.73216 16.4812 2.24217C15.2982 1.75219 14.0304 1.5 12.75 1.5ZM13.5 10.5V3.033C15.4213 3.20814 17.2205 4.0511 18.5847 5.4153C19.9489 6.77951 20.7918 8.57869 20.967 10.5H13.5ZM10.5 5.283C10.5 5.17881 10.4783 5.07577 10.4363 4.98044C10.3942 4.8851 10.3328 4.79957 10.2559 4.72929C10.179 4.65901 10.0883 4.60553 9.98956 4.57225C9.89083 4.53897 9.78625 4.52662 9.68249 4.536C7.97916 4.6913 6.35534 5.32875 5.00126 6.37369C3.64717 7.41864 2.61887 8.82779 2.03682 10.4361C1.45477 12.0444 1.34306 13.7853 1.71479 15.4548C2.08651 17.1243 2.92627 18.6534 4.13571 19.8628C5.34514 21.0722 6.87416 21.912 8.54368 22.2837C10.2132 22.6554 11.9541 22.5437 13.5624 21.9617C15.1707 21.3796 16.5799 20.3513 17.6248 18.9972C18.6697 17.6431 19.3072 16.0193 19.4625 14.316C19.4716 14.2125 19.4592 14.1082 19.4259 14.0097C19.3926 13.9113 19.3392 13.8208 19.2691 13.7441C19.199 13.6674 19.1137 13.6061 19.0187 13.5641C18.9237 13.522 18.8209 13.5002 18.717 13.5H10.5V5.283ZM2.99999 13.5C2.99964 11.771 3.59667 10.095 4.69003 8.75565C5.7834 7.41627 7.30594 6.4958 8.99999 6.15V14.25C8.99999 14.4489 9.07901 14.6397 9.21966 14.7803C9.36031 14.921 9.55108 15 9.74999 15H17.85C17.4736 16.817 16.4373 18.4301 14.9411 19.5277C13.4449 20.6254 11.5951 21.1296 9.74892 20.9431C7.90271 20.7566 6.1911 19.8926 4.94467 18.518C3.69823 17.1434 3.0054 15.3556 2.99999 13.5Z" fill="black"/>
</svg>
